<svg id="visual" viewBox="0 0 900 600" width="900" height="600" xmlns="http://www.w3.org/2000/svg" xmlns:xlink="http://www.w3.org/1999/xlink" version="1.1"><rect x="0" y="0" width="900" height="600" fill="#002233"></rect><path d="M0 200L21.5 184C43 168 86 136 128.8 118.7C171.7 101.3 214.3 98.7 257.2 114.8C300 131 343 166 385.8 172.3C428.7 178.7 471.3 156.3 514.2 159.3C557 162.3 600 190.7 642.8 190.7C685.7 190.7 728.3 162.3 771.2 140.5C814 118.7 857 103.3 878.5 95.7L900 88L900 0L878.5 0C857 0 814 0 771.2 0C728.3 0 685.7 0 642.8 0C600 0 557 0 514.2 0C471.3 0 428.7 0 385.8 0C343 0 300 0 257.2 0C214.3 0 171.7 0 128.8 0C86 0 43 0 21.5 0L0 0Z" fill="#0066FF" stroke-linecap="round" stroke-linejoin="miter"></path></svg>